<svg viewBox="0 0 800 1000" xmlns="http://www.w3.org/2000/svg" preserveAspectRatio="xMidYMid slice"><defs>
    <linearGradient id="bgs11" x1="0" y1="0" x2="0" y2="1">
      <stop offset="0" stop-color="#15402F"/><stop offset="1" stop-color="#081E18"/>
    </linearGradient>
    <radialGradient id="glows11" cx="50%" cy="28%" r="60%">
      <stop offset="0" stop-color="#E2B85A" stop-opacity="0.55"/>
      <stop offset="40%" stop-color="#E2B85A" stop-opacity="0.12"/>
      <stop offset="100%" stop-color="#E2B85A" stop-opacity="0"/>
    </radialGradient>
    <radialGradient id="vigs11" cx="50%" cy="46%" r="75%">
      <stop offset="55%" stop-color="#000" stop-opacity="0"/>
      <stop offset="100%" stop-color="#000" stop-opacity="0.55"/>
    </radialGradient>
    <filter id="grains11"><feTurbulence type="fractalNoise" baseFrequency="0.9" numOctaves="2" stitchTiles="stitch"/>
      <feColorMatrix type="saturate" values="0"/>
      <feComponentTransfer><feFuncA type="linear" slope="0.05"/></feComponentTransfer>
      <feComposite operator="over" in2="SourceGraphic"/></filter>
    <filter id="softs11"><feGaussianBlur stdDeviation="6"/></filter>
  </defs><rect width="800" height="1000" fill="url(#bgs11)"/><rect width="800" height="1000" fill="url(#glows11)"/><line x1="190" y1="0" x2="190" y2="108" stroke="#E2B85A" stroke-opacity="0.25" stroke-width="1"/><circle cx="190" cy="122" r="32" fill="#E2B85A" opacity="0.18" filter="url(#softs11)"/><circle cx="190" cy="122" r="5" fill="#E2B85A" opacity="0.9"/><line x1="383" y1="0" x2="383" y2="143" stroke="#E2B85A" stroke-opacity="0.25" stroke-width="1"/><circle cx="383" cy="157" r="40" fill="#E2B85A" opacity="0.18" filter="url(#softs11)"/><circle cx="383" cy="157" r="5" fill="#E2B85A" opacity="0.9"/><line x1="583" y1="0" x2="583" y2="143" stroke="#E2B85A" stroke-opacity="0.25" stroke-width="1"/><circle cx="583" cy="157" r="28" fill="#E2B85A" opacity="0.18" filter="url(#softs11)"/><circle cx="583" cy="157" r="5" fill="#E2B85A" opacity="0.9"/><circle cx="171" cy="780" r="9" fill="#E2B85A" opacity="0.08" filter="url(#softs11)"/><circle cx="284" cy="565" r="17" fill="#E2B85A" opacity="0.08" filter="url(#softs11)"/><circle cx="383" cy="685" r="12" fill="#E2B85A" opacity="0.05" filter="url(#softs11)"/><circle cx="586" cy="768" r="4" fill="#E2B85A" opacity="0.07" filter="url(#softs11)"/><circle cx="100" cy="611" r="4" fill="#E2B85A" opacity="0.08" filter="url(#softs11)"/><circle cx="739" cy="795" r="19" fill="#E2B85A" opacity="0.14" filter="url(#softs11)"/><circle cx="38" cy="440" r="20" fill="#E2B85A" opacity="0.04" filter="url(#softs11)"/><circle cx="171" cy="838" r="7" fill="#E2B85A" opacity="0.07" filter="url(#softs11)"/><circle cx="697" cy="751" r="24" fill="#E2B85A" opacity="0.11" filter="url(#softs11)"/><circle cx="124" cy="520" r="16" fill="#E2B85A" opacity="0.10" filter="url(#softs11)"/><circle cx="330" cy="353" r="17" fill="#E2B85A" opacity="0.09" filter="url(#softs11)"/><circle cx="38" cy="757" r="6" fill="#E2B85A" opacity="0.04" filter="url(#softs11)"/><circle cx="554" cy="470" r="16" fill="#E2B85A" opacity="0.07" filter="url(#softs11)"/><circle cx="796" cy="264" r="7" fill="#E2B85A" opacity="0.04" filter="url(#softs11)"/><circle cx="413" cy="373" r="10" fill="#E2B85A" opacity="0.11" filter="url(#softs11)"/><circle cx="409" cy="312" r="15" fill="#E2B85A" opacity="0.06" filter="url(#softs11)"/><circle cx="495" cy="458" r="6" fill="#E2B85A" opacity="0.05" filter="url(#softs11)"/><circle cx="559" cy="935" r="4" fill="#E2B85A" opacity="0.07" filter="url(#softs11)"/><circle cx="294" cy="788" r="11" fill="#E2B85A" opacity="0.07" filter="url(#softs11)"/><circle cx="780" cy="591" r="18" fill="#E2B85A" opacity="0.12" filter="url(#softs11)"/><circle cx="27" cy="667" r="11" fill="#E2B85A" opacity="0.06" filter="url(#softs11)"/><circle cx="309" cy="867" r="14" fill="#E2B85A" opacity="0.14" filter="url(#softs11)"/><circle cx="492" cy="879" r="8" fill="#E2B85A" opacity="0.10" filter="url(#softs11)"/><circle cx="364" cy="237" r="18" fill="#E2B85A" opacity="0.07" filter="url(#softs11)"/><circle cx="189" cy="568" r="18" fill="#E2B85A" opacity="0.09" filter="url(#softs11)"/><circle cx="489" cy="872" r="17" fill="#E2B85A" opacity="0.10" filter="url(#softs11)"/><rect x="0" y="660" width="800" height="340" fill="#000" opacity="0.32"/><rect x="32" y="540" width="16" height="130" rx="8" fill="#000" opacity="0.5"/><rect x="32" y="540" width="2" height="130" fill="#E2B85A" opacity="0.35"/><rect x="66" y="594" width="26" height="76" rx="13" fill="#000" opacity="0.5"/><rect x="66" y="594" width="2" height="76" fill="#E2B85A" opacity="0.35"/><rect x="106" y="604" width="20" height="66" rx="10" fill="#000" opacity="0.5"/><rect x="106" y="604" width="2" height="66" fill="#E2B85A" opacity="0.35"/><rect x="132" y="602" width="15" height="68" rx="7" fill="#000" opacity="0.5"/><rect x="132" y="602" width="2" height="68" fill="#E2B85A" opacity="0.35"/><rect x="163" y="571" width="29" height="99" rx="14" fill="#000" opacity="0.5"/><rect x="163" y="571" width="2" height="99" fill="#E2B85A" opacity="0.35"/><rect x="205" y="572" width="29" height="98" rx="14" fill="#000" opacity="0.5"/><rect x="205" y="572" width="2" height="98" fill="#E2B85A" opacity="0.35"/><rect x="256" y="574" width="26" height="96" rx="13" fill="#000" opacity="0.5"/><rect x="256" y="574" width="2" height="96" fill="#E2B85A" opacity="0.35"/><rect x="291" y="566" width="24" height="104" rx="12" fill="#000" opacity="0.5"/><rect x="291" y="566" width="2" height="104" fill="#E2B85A" opacity="0.35"/><rect x="328" y="581" width="16" height="89" rx="8" fill="#000" opacity="0.5"/><rect x="328" y="581" width="2" height="89" fill="#E2B85A" opacity="0.35"/><rect x="360" y="573" width="22" height="97" rx="11" fill="#000" opacity="0.5"/><rect x="360" y="573" width="2" height="97" fill="#E2B85A" opacity="0.35"/><rect x="399" y="586" width="24" height="84" rx="12" fill="#000" opacity="0.5"/><rect x="399" y="586" width="2" height="84" fill="#E2B85A" opacity="0.35"/><rect x="437" y="553" width="22" height="117" rx="11" fill="#000" opacity="0.5"/><rect x="437" y="553" width="2" height="117" fill="#E2B85A" opacity="0.35"/><rect x="477" y="541" width="25" height="129" rx="13" fill="#000" opacity="0.5"/><rect x="477" y="541" width="2" height="129" fill="#E2B85A" opacity="0.35"/><rect x="522" y="602" width="18" height="68" rx="9" fill="#000" opacity="0.5"/><rect x="522" y="602" width="2" height="68" fill="#E2B85A" opacity="0.35"/><rect x="559" y="560" width="24" height="110" rx="12" fill="#000" opacity="0.5"/><rect x="559" y="560" width="2" height="110" fill="#E2B85A" opacity="0.35"/><rect x="595" y="603" width="25" height="67" rx="13" fill="#000" opacity="0.5"/><rect x="595" y="603" width="2" height="67" fill="#E2B85A" opacity="0.35"/><rect x="641" y="545" width="16" height="125" rx="8" fill="#000" opacity="0.5"/><rect x="641" y="545" width="2" height="125" fill="#E2B85A" opacity="0.35"/><rect x="681" y="601" width="27" height="69" rx="13" fill="#000" opacity="0.5"/><rect x="681" y="601" width="2" height="69" fill="#E2B85A" opacity="0.35"/><rect x="731" y="590" width="28" height="80" rx="14" fill="#000" opacity="0.5"/><rect x="731" y="590" width="2" height="80" fill="#E2B85A" opacity="0.35"/><rect width="800" height="1000" fill="url(#vigs11)"/><rect width="800" height="1000" filter="url(#grains11)" opacity="0.5"/></svg>