<svg viewBox="0 0 1600 600" xmlns="http://www.w3.org/2000/svg" preserveAspectRatio="xMidYMid slice"><defs>
    <linearGradient id="bgs202" x1="0" y1="0" x2="0" y2="1">
      <stop offset="0" stop-color="#2A1E10"/><stop offset="1" stop-color="#10342A"/>
    </linearGradient>
    <radialGradient id="glows202" cx="50%" cy="28%" r="60%">
      <stop offset="0" stop-color="#F0C56B" stop-opacity="0.55"/>
      <stop offset="40%" stop-color="#F0C56B" stop-opacity="0.12"/>
      <stop offset="100%" stop-color="#F0C56B" stop-opacity="0"/>
    </radialGradient>
    <radialGradient id="vigs202" cx="50%" cy="46%" r="75%">
      <stop offset="55%" stop-color="#000" stop-opacity="0"/>
      <stop offset="100%" stop-color="#000" stop-opacity="0.55"/>
    </radialGradient>
    <filter id="grains202"><feTurbulence type="fractalNoise" baseFrequency="0.9" numOctaves="2" stitchTiles="stitch"/>
      <feColorMatrix type="saturate" values="0"/>
      <feComponentTransfer><feFuncA type="linear" slope="0.05"/></feComponentTransfer>
      <feComposite operator="over" in2="SourceGraphic"/></filter>
    <filter id="softs202"><feGaussianBlur stdDeviation="6"/></filter>
  </defs><rect width="1600" height="600" fill="url(#bgs202)"/><rect width="1600" height="600" fill="url(#glows202)"/><line x1="313" y1="0" x2="313" y2="75" stroke="#F0C56B" stroke-opacity="0.25" stroke-width="1"/><circle cx="313" cy="89" r="28" fill="#F0C56B" opacity="0.18" filter="url(#softs202)"/><circle cx="313" cy="89" r="5" fill="#F0C56B" opacity="0.9"/><line x1="626" y1="0" x2="626" y2="46" stroke="#F0C56B" stroke-opacity="0.25" stroke-width="1"/><circle cx="626" cy="60" r="37" fill="#F0C56B" opacity="0.18" filter="url(#softs202)"/><circle cx="626" cy="60" r="5" fill="#F0C56B" opacity="0.9"/><line x1="957" y1="0" x2="957" y2="80" stroke="#F0C56B" stroke-opacity="0.25" stroke-width="1"/><circle cx="957" cy="94" r="30" fill="#F0C56B" opacity="0.18" filter="url(#softs202)"/><circle cx="957" cy="94" r="5" fill="#F0C56B" opacity="0.9"/><line x1="1267" y1="0" x2="1267" y2="68" stroke="#F0C56B" stroke-opacity="0.25" stroke-width="1"/><circle cx="1267" cy="82" r="27" fill="#F0C56B" opacity="0.18" filter="url(#softs202)"/><circle cx="1267" cy="82" r="5" fill="#F0C56B" opacity="0.9"/><circle cx="1504" cy="163" r="6" fill="#F0C56B" opacity="0.11" filter="url(#softs202)"/><circle cx="1032" cy="273" r="18" fill="#F0C56B" opacity="0.12" filter="url(#softs202)"/><circle cx="199" cy="202" r="20" fill="#F0C56B" opacity="0.11" filter="url(#softs202)"/><circle cx="1163" cy="335" r="4" fill="#F0C56B" opacity="0.10" filter="url(#softs202)"/><circle cx="69" cy="489" r="4" fill="#F0C56B" opacity="0.08" filter="url(#softs202)"/><circle cx="1536" cy="507" r="9" fill="#F0C56B" opacity="0.04" filter="url(#softs202)"/><circle cx="1020" cy="194" r="13" fill="#F0C56B" opacity="0.06" filter="url(#softs202)"/><circle cx="305" cy="469" r="17" fill="#F0C56B" opacity="0.06" filter="url(#softs202)"/><circle cx="122" cy="563" r="9" fill="#F0C56B" opacity="0.07" filter="url(#softs202)"/><circle cx="741" cy="111" r="25" fill="#F0C56B" opacity="0.12" filter="url(#softs202)"/><circle cx="143" cy="253" r="7" fill="#F0C56B" opacity="0.11" filter="url(#softs202)"/><circle cx="613" cy="339" r="20" fill="#F0C56B" opacity="0.12" filter="url(#softs202)"/><circle cx="1371" cy="429" r="4" fill="#F0C56B" opacity="0.12" filter="url(#softs202)"/><circle cx="63" cy="206" r="5" fill="#F0C56B" opacity="0.05" filter="url(#softs202)"/><circle cx="746" cy="395" r="5" fill="#F0C56B" opacity="0.13" filter="url(#softs202)"/><circle cx="785" cy="424" r="4" fill="#F0C56B" opacity="0.07" filter="url(#softs202)"/><circle cx="1488" cy="111" r="14" fill="#F0C56B" opacity="0.06" filter="url(#softs202)"/><circle cx="1305" cy="309" r="21" fill="#F0C56B" opacity="0.09" filter="url(#softs202)"/><circle cx="1221" cy="449" r="21" fill="#F0C56B" opacity="0.08" filter="url(#softs202)"/><circle cx="1157" cy="156" r="7" fill="#F0C56B" opacity="0.12" filter="url(#softs202)"/><circle cx="209" cy="243" r="20" fill="#F0C56B" opacity="0.07" filter="url(#softs202)"/><circle cx="1161" cy="405" r="18" fill="#F0C56B" opacity="0.04" filter="url(#softs202)"/><circle cx="875" cy="210" r="15" fill="#F0C56B" opacity="0.06" filter="url(#softs202)"/><circle cx="1403" cy="472" r="7" fill="#F0C56B" opacity="0.09" filter="url(#softs202)"/><circle cx="236" cy="299" r="5" fill="#F0C56B" opacity="0.10" filter="url(#softs202)"/><circle cx="112" cy="136" r="10" fill="#F0C56B" opacity="0.07" filter="url(#softs202)"/><rect x="0" y="396" width="1600" height="204" fill="#000" opacity="0.32"/><rect x="64" y="260" width="22" height="146" rx="11" fill="#000" opacity="0.5"/><rect x="64" y="260" width="2" height="146" fill="#F0C56B" opacity="0.35"/><rect x="95" y="265" width="29" height="141" rx="14" fill="#000" opacity="0.5"/><rect x="95" y="265" width="2" height="141" fill="#F0C56B" opacity="0.35"/><rect x="130" y="328" width="17" height="78" rx="8" fill="#000" opacity="0.5"/><rect x="130" y="328" width="2" height="78" fill="#F0C56B" opacity="0.35"/><rect x="155" y="272" width="17" height="134" rx="9" fill="#000" opacity="0.5"/><rect x="155" y="272" width="2" height="134" fill="#F0C56B" opacity="0.35"/><rect x="194" y="290" width="15" height="116" rx="8" fill="#000" opacity="0.5"/><rect x="194" y="290" width="2" height="116" fill="#F0C56B" opacity="0.35"/><rect x="228" y="340" width="15" height="66" rx="8" fill="#000" opacity="0.5"/><rect x="228" y="340" width="2" height="66" fill="#F0C56B" opacity="0.35"/><rect x="253" y="319" width="30" height="87" rx="15" fill="#000" opacity="0.5"/><rect x="253" y="319" width="2" height="87" fill="#F0C56B" opacity="0.35"/><rect x="297" y="287" width="15" height="119" rx="7" fill="#000" opacity="0.5"/><rect x="297" y="287" width="2" height="119" fill="#F0C56B" opacity="0.35"/><rect x="325" y="292" width="14" height="114" rx="7" fill="#000" opacity="0.5"/><rect x="325" y="292" width="2" height="114" fill="#F0C56B" opacity="0.35"/><rect x="356" y="302" width="18" height="104" rx="9" fill="#000" opacity="0.5"/><rect x="356" y="302" width="2" height="104" fill="#F0C56B" opacity="0.35"/><rect x="381" y="269" width="16" height="137" rx="8" fill="#000" opacity="0.5"/><rect x="381" y="269" width="2" height="137" fill="#F0C56B" opacity="0.35"/><rect x="418" y="314" width="19" height="92" rx="9" fill="#000" opacity="0.5"/><rect x="418" y="314" width="2" height="92" fill="#F0C56B" opacity="0.35"/><rect x="446" y="344" width="21" height="62" rx="11" fill="#000" opacity="0.5"/><rect x="446" y="344" width="2" height="62" fill="#F0C56B" opacity="0.35"/><rect x="483" y="295" width="28" height="111" rx="14" fill="#000" opacity="0.5"/><rect x="483" y="295" width="2" height="111" fill="#F0C56B" opacity="0.35"/><rect x="520" y="300" width="18" height="106" rx="9" fill="#000" opacity="0.5"/><rect x="520" y="300" width="2" height="106" fill="#F0C56B" opacity="0.35"/><rect x="545" y="319" width="18" height="87" rx="9" fill="#000" opacity="0.5"/><rect x="545" y="319" width="2" height="87" fill="#F0C56B" opacity="0.35"/><rect x="572" y="295" width="20" height="111" rx="10" fill="#000" opacity="0.5"/><rect x="572" y="295" width="2" height="111" fill="#F0C56B" opacity="0.35"/><rect x="602" y="284" width="18" height="122" rx="9" fill="#000" opacity="0.5"/><rect x="602" y="284" width="2" height="122" fill="#F0C56B" opacity="0.35"/><rect x="636" y="279" width="15" height="127" rx="7" fill="#000" opacity="0.5"/><rect x="636" y="279" width="2" height="127" fill="#F0C56B" opacity="0.35"/><rect x="666" y="263" width="19" height="143" rx="9" fill="#000" opacity="0.5"/><rect x="666" y="263" width="2" height="143" fill="#F0C56B" opacity="0.35"/><rect x="698" y="270" width="17" height="136" rx="9" fill="#000" opacity="0.5"/><rect x="698" y="270" width="2" height="136" fill="#F0C56B" opacity="0.35"/><rect x="728" y="306" width="16" height="100" rx="8" fill="#000" opacity="0.5"/><rect x="728" y="306" width="2" height="100" fill="#F0C56B" opacity="0.35"/><rect x="766" y="344" width="21" height="62" rx="11" fill="#000" opacity="0.5"/><rect x="766" y="344" width="2" height="62" fill="#F0C56B" opacity="0.35"/><rect x="799" y="341" width="28" height="65" rx="14" fill="#000" opacity="0.5"/><rect x="799" y="341" width="2" height="65" fill="#F0C56B" opacity="0.35"/><rect x="851" y="307" width="16" height="99" rx="8" fill="#000" opacity="0.5"/><rect x="851" y="307" width="2" height="99" fill="#F0C56B" opacity="0.35"/><rect x="877" y="300" width="18" height="106" rx="9" fill="#000" opacity="0.5"/><rect x="877" y="300" width="2" height="106" fill="#F0C56B" opacity="0.35"/><rect x="904" y="338" width="15" height="68" rx="8" fill="#000" opacity="0.5"/><rect x="904" y="338" width="2" height="68" fill="#F0C56B" opacity="0.35"/><rect x="942" y="269" width="15" height="137" rx="8" fill="#000" opacity="0.5"/><rect x="942" y="269" width="2" height="137" fill="#F0C56B" opacity="0.35"/><rect x="969" y="313" width="22" height="93" rx="11" fill="#000" opacity="0.5"/><rect x="969" y="313" width="2" height="93" fill="#F0C56B" opacity="0.35"/><rect x="1013" y="340" width="22" height="66" rx="11" fill="#000" opacity="0.5"/><rect x="1013" y="340" width="2" height="66" fill="#F0C56B" opacity="0.35"/><rect x="1051" y="278" width="17" height="128" rx="8" fill="#000" opacity="0.5"/><rect x="1051" y="278" width="2" height="128" fill="#F0C56B" opacity="0.35"/><rect x="1079" y="280" width="27" height="126" rx="13" fill="#000" opacity="0.5"/><rect x="1079" y="280" width="2" height="126" fill="#F0C56B" opacity="0.35"/><rect x="1127" y="272" width="15" height="134" rx="8" fill="#000" opacity="0.5"/><rect x="1127" y="272" width="2" height="134" fill="#F0C56B" opacity="0.35"/><rect x="1152" y="270" width="19" height="136" rx="9" fill="#000" opacity="0.5"/><rect x="1152" y="270" width="2" height="136" fill="#F0C56B" opacity="0.35"/><rect x="1187" y="281" width="25" height="125" rx="12" fill="#000" opacity="0.5"/><rect x="1187" y="281" width="2" height="125" fill="#F0C56B" opacity="0.35"/><rect x="1232" y="321" width="22" height="85" rx="11" fill="#000" opacity="0.5"/><rect x="1232" y="321" width="2" height="85" fill="#F0C56B" opacity="0.35"/><rect x="1274" y="284" width="17" height="122" rx="8" fill="#000" opacity="0.5"/><rect x="1274" y="284" width="2" height="122" fill="#F0C56B" opacity="0.35"/><rect x="1301" y="319" width="17" height="87" rx="8" fill="#000" opacity="0.5"/><rect x="1301" y="319" width="2" height="87" fill="#F0C56B" opacity="0.35"/><rect x="1331" y="311" width="18" height="95" rx="9" fill="#000" opacity="0.5"/><rect x="1331" y="311" width="2" height="95" fill="#F0C56B" opacity="0.35"/><rect x="1358" y="262" width="26" height="144" rx="13" fill="#000" opacity="0.5"/><rect x="1358" y="262" width="2" height="144" fill="#F0C56B" opacity="0.35"/><rect x="1402" y="261" width="15" height="145" rx="7" fill="#000" opacity="0.5"/><rect x="1402" y="261" width="2" height="145" fill="#F0C56B" opacity="0.35"/><rect x="1435" y="288" width="20" height="118" rx="10" fill="#000" opacity="0.5"/><rect x="1435" y="288" width="2" height="118" fill="#F0C56B" opacity="0.35"/><rect x="1472" y="287" width="20" height="119" rx="10" fill="#000" opacity="0.5"/><rect x="1472" y="287" width="2" height="119" fill="#F0C56B" opacity="0.35"/><rect x="1510" y="343" width="27" height="63" rx="13" fill="#000" opacity="0.5"/><rect x="1510" y="343" width="2" height="63" fill="#F0C56B" opacity="0.35"/><rect width="1600" height="600" fill="url(#vigs202)"/><rect width="1600" height="600" filter="url(#grains202)" opacity="0.5"/></svg>