<svg viewBox="0 0 1600 600" xmlns="http://www.w3.org/2000/svg" preserveAspectRatio="xMidYMid slice"><defs>
    <linearGradient id="bgs303" x1="0" y1="0" x2="0" y2="1">
      <stop offset="0" stop-color="#1C4A3C"/><stop offset="1" stop-color="#0A211B"/>
    </linearGradient>
    <radialGradient id="glows303" cx="50%" cy="28%" r="60%">
      <stop offset="0" stop-color="#EAD79B" stop-opacity="0.55"/>
      <stop offset="40%" stop-color="#EAD79B" stop-opacity="0.12"/>
      <stop offset="100%" stop-color="#EAD79B" stop-opacity="0"/>
    </radialGradient>
    <radialGradient id="vigs303" cx="50%" cy="46%" r="75%">
      <stop offset="55%" stop-color="#000" stop-opacity="0"/>
      <stop offset="100%" stop-color="#000" stop-opacity="0.55"/>
    </radialGradient>
    <filter id="grains303"><feTurbulence type="fractalNoise" baseFrequency="0.9" numOctaves="2" stitchTiles="stitch"/>
      <feColorMatrix type="saturate" values="0"/>
      <feComponentTransfer><feFuncA type="linear" slope="0.05"/></feComponentTransfer>
      <feComposite operator="over" in2="SourceGraphic"/></filter>
    <filter id="softs303"><feGaussianBlur stdDeviation="6"/></filter>
  </defs><rect width="1600" height="600" fill="url(#bgs303)"/><rect width="1600" height="600" fill="url(#glows303)"/><line x1="261" y1="0" x2="261" y2="83" stroke="#EAD79B" stroke-opacity="0.25" stroke-width="1"/><circle cx="261" cy="97" r="31" fill="#EAD79B" opacity="0.18" filter="url(#softs303)"/><circle cx="261" cy="97" r="5" fill="#EAD79B" opacity="0.9"/><line x1="549" y1="0" x2="549" y2="62" stroke="#EAD79B" stroke-opacity="0.25" stroke-width="1"/><circle cx="549" cy="76" r="29" fill="#EAD79B" opacity="0.18" filter="url(#softs303)"/><circle cx="549" cy="76" r="5" fill="#EAD79B" opacity="0.9"/><line x1="818" y1="0" x2="818" y2="57" stroke="#EAD79B" stroke-opacity="0.25" stroke-width="1"/><circle cx="818" cy="71" r="36" fill="#EAD79B" opacity="0.18" filter="url(#softs303)"/><circle cx="818" cy="71" r="5" fill="#EAD79B" opacity="0.9"/><line x1="1086" y1="0" x2="1086" y2="59" stroke="#EAD79B" stroke-opacity="0.25" stroke-width="1"/><circle cx="1086" cy="73" r="30" fill="#EAD79B" opacity="0.18" filter="url(#softs303)"/><circle cx="1086" cy="73" r="5" fill="#EAD79B" opacity="0.9"/><line x1="1337" y1="0" x2="1337" y2="60" stroke="#EAD79B" stroke-opacity="0.25" stroke-width="1"/><circle cx="1337" cy="74" r="29" fill="#EAD79B" opacity="0.18" filter="url(#softs303)"/><circle cx="1337" cy="74" r="5" fill="#EAD79B" opacity="0.9"/><circle cx="1187" cy="144" r="23" fill="#EAD79B" opacity="0.13" filter="url(#softs303)"/><circle cx="543" cy="534" r="5" fill="#EAD79B" opacity="0.09" filter="url(#softs303)"/><circle cx="1560" cy="370" r="6" fill="#EAD79B" opacity="0.10" filter="url(#softs303)"/><circle cx="58" cy="493" r="7" fill="#EAD79B" opacity="0.08" filter="url(#softs303)"/><circle cx="39" cy="212" r="6" fill="#EAD79B" opacity="0.08" filter="url(#softs303)"/><circle cx="349" cy="163" r="8" fill="#EAD79B" opacity="0.06" filter="url(#softs303)"/><circle cx="1535" cy="173" r="17" fill="#EAD79B" opacity="0.05" filter="url(#softs303)"/><circle cx="730" cy="125" r="23" fill="#EAD79B" opacity="0.08" filter="url(#softs303)"/><circle cx="387" cy="353" r="21" fill="#EAD79B" opacity="0.08" filter="url(#softs303)"/><circle cx="1099" cy="178" r="9" fill="#EAD79B" opacity="0.06" filter="url(#softs303)"/><circle cx="307" cy="505" r="15" fill="#EAD79B" opacity="0.10" filter="url(#softs303)"/><circle cx="1547" cy="188" r="6" fill="#EAD79B" opacity="0.04" filter="url(#softs303)"/><circle cx="838" cy="486" r="19" fill="#EAD79B" opacity="0.09" filter="url(#softs303)"/><circle cx="458" cy="372" r="11" fill="#EAD79B" opacity="0.06" filter="url(#softs303)"/><circle cx="1508" cy="127" r="23" fill="#EAD79B" opacity="0.12" filter="url(#softs303)"/><circle cx="714" cy="531" r="12" fill="#EAD79B" opacity="0.07" filter="url(#softs303)"/><circle cx="1277" cy="467" r="13" fill="#EAD79B" opacity="0.09" filter="url(#softs303)"/><circle cx="1596" cy="152" r="21" fill="#EAD79B" opacity="0.10" filter="url(#softs303)"/><circle cx="1297" cy="570" r="12" fill="#EAD79B" opacity="0.05" filter="url(#softs303)"/><circle cx="388" cy="338" r="18" fill="#EAD79B" opacity="0.11" filter="url(#softs303)"/><circle cx="1362" cy="485" r="23" fill="#EAD79B" opacity="0.06" filter="url(#softs303)"/><circle cx="481" cy="372" r="14" fill="#EAD79B" opacity="0.04" filter="url(#softs303)"/><circle cx="1261" cy="291" r="24" fill="#EAD79B" opacity="0.12" filter="url(#softs303)"/><circle cx="377" cy="431" r="19" fill="#EAD79B" opacity="0.10" filter="url(#softs303)"/><circle cx="631" cy="481" r="4" fill="#EAD79B" opacity="0.06" filter="url(#softs303)"/><circle cx="387" cy="363" r="16" fill="#EAD79B" opacity="0.10" filter="url(#softs303)"/><rect x="0" y="396" width="1600" height="204" fill="#000" opacity="0.32"/><rect x="64" y="299" width="19" height="107" rx="10" fill="#000" opacity="0.5"/><rect x="64" y="299" width="2" height="107" fill="#EAD79B" opacity="0.35"/><rect x="92" y="265" width="17" height="141" rx="9" fill="#000" opacity="0.5"/><rect x="92" y="265" width="2" height="141" fill="#EAD79B" opacity="0.35"/><rect x="123" y="310" width="29" height="96" rx="14" fill="#000" opacity="0.5"/><rect x="123" y="310" width="2" height="96" fill="#EAD79B" opacity="0.35"/><rect x="160" y="314" width="29" height="92" rx="15" fill="#000" opacity="0.5"/><rect x="160" y="314" width="2" height="92" fill="#EAD79B" opacity="0.35"/><rect x="204" y="318" width="22" height="88" rx="11" fill="#000" opacity="0.5"/><rect x="204" y="318" width="2" height="88" fill="#EAD79B" opacity="0.35"/><rect x="233" y="313" width="15" height="93" rx="7" fill="#000" opacity="0.5"/><rect x="233" y="313" width="2" height="93" fill="#EAD79B" opacity="0.35"/><rect x="267" y="327" width="29" height="79" rx="15" fill="#000" opacity="0.5"/><rect x="267" y="327" width="2" height="79" fill="#EAD79B" opacity="0.35"/><rect x="309" y="279" width="26" height="127" rx="13" fill="#000" opacity="0.5"/><rect x="309" y="279" width="2" height="127" fill="#EAD79B" opacity="0.35"/><rect x="356" y="294" width="26" height="112" rx="13" fill="#000" opacity="0.5"/><rect x="356" y="294" width="2" height="112" fill="#EAD79B" opacity="0.35"/><rect x="395" y="309" width="23" height="97" rx="12" fill="#000" opacity="0.5"/><rect x="395" y="309" width="2" height="97" fill="#EAD79B" opacity="0.35"/><rect x="433" y="311" width="18" height="95" rx="9" fill="#000" opacity="0.5"/><rect x="433" y="311" width="2" height="95" fill="#EAD79B" opacity="0.35"/><rect x="465" y="336" width="21" height="70" rx="10" fill="#000" opacity="0.5"/><rect x="465" y="336" width="2" height="70" fill="#EAD79B" opacity="0.35"/><rect x="501" y="313" width="22" height="93" rx="11" fill="#000" opacity="0.5"/><rect x="501" y="313" width="2" height="93" fill="#EAD79B" opacity="0.35"/><rect x="533" y="326" width="25" height="80" rx="13" fill="#000" opacity="0.5"/><rect x="533" y="326" width="2" height="80" fill="#EAD79B" opacity="0.35"/><rect x="581" y="342" width="17" height="64" rx="8" fill="#000" opacity="0.5"/><rect x="581" y="342" width="2" height="64" fill="#EAD79B" opacity="0.35"/><rect x="605" y="320" width="16" height="86" rx="8" fill="#000" opacity="0.5"/><rect x="605" y="320" width="2" height="86" fill="#EAD79B" opacity="0.35"/><rect x="644" y="263" width="27" height="143" rx="14" fill="#000" opacity="0.5"/><rect x="644" y="263" width="2" height="143" fill="#EAD79B" opacity="0.35"/><rect x="693" y="264" width="27" height="142" rx="13" fill="#000" opacity="0.5"/><rect x="693" y="264" width="2" height="142" fill="#EAD79B" opacity="0.35"/><rect x="742" y="304" width="25" height="102" rx="12" fill="#000" opacity="0.5"/><rect x="742" y="304" width="2" height="102" fill="#EAD79B" opacity="0.35"/><rect x="781" y="323" width="29" height="83" rx="15" fill="#000" opacity="0.5"/><rect x="781" y="323" width="2" height="83" fill="#EAD79B" opacity="0.35"/><rect x="829" y="330" width="22" height="76" rx="11" fill="#000" opacity="0.5"/><rect x="829" y="330" width="2" height="76" fill="#EAD79B" opacity="0.35"/><rect x="874" y="320" width="25" height="86" rx="13" fill="#000" opacity="0.5"/><rect x="874" y="320" width="2" height="86" fill="#EAD79B" opacity="0.35"/><rect x="908" y="322" width="21" height="84" rx="11" fill="#000" opacity="0.5"/><rect x="908" y="322" width="2" height="84" fill="#EAD79B" opacity="0.35"/><rect x="937" y="341" width="20" height="65" rx="10" fill="#000" opacity="0.5"/><rect x="937" y="341" width="2" height="65" fill="#EAD79B" opacity="0.35"/><rect x="966" y="321" width="27" height="85" rx="13" fill="#000" opacity="0.5"/><rect x="966" y="321" width="2" height="85" fill="#EAD79B" opacity="0.35"/><rect x="1013" y="311" width="29" height="95" rx="14" fill="#000" opacity="0.5"/><rect x="1013" y="311" width="2" height="95" fill="#EAD79B" opacity="0.35"/><rect x="1059" y="277" width="29" height="129" rx="14" fill="#000" opacity="0.5"/><rect x="1059" y="277" width="2" height="129" fill="#EAD79B" opacity="0.35"/><rect x="1103" y="291" width="22" height="115" rx="11" fill="#000" opacity="0.5"/><rect x="1103" y="291" width="2" height="115" fill="#EAD79B" opacity="0.35"/><rect x="1146" y="256" width="21" height="150" rx="10" fill="#000" opacity="0.5"/><rect x="1146" y="256" width="2" height="150" fill="#EAD79B" opacity="0.35"/><rect x="1186" y="278" width="22" height="128" rx="11" fill="#000" opacity="0.5"/><rect x="1186" y="278" width="2" height="128" fill="#EAD79B" opacity="0.35"/><rect x="1228" y="265" width="19" height="141" rx="9" fill="#000" opacity="0.5"/><rect x="1228" y="265" width="2" height="141" fill="#EAD79B" opacity="0.35"/><rect x="1262" y="293" width="30" height="113" rx="15" fill="#000" opacity="0.5"/><rect x="1262" y="293" width="2" height="113" fill="#EAD79B" opacity="0.35"/><rect x="1307" y="293" width="15" height="113" rx="7" fill="#000" opacity="0.5"/><rect x="1307" y="293" width="2" height="113" fill="#EAD79B" opacity="0.35"/><rect x="1332" y="321" width="19" height="85" rx="10" fill="#000" opacity="0.5"/><rect x="1332" y="321" width="2" height="85" fill="#EAD79B" opacity="0.35"/><rect x="1361" y="334" width="29" height="72" rx="15" fill="#000" opacity="0.5"/><rect x="1361" y="334" width="2" height="72" fill="#EAD79B" opacity="0.35"/><rect x="1401" y="331" width="24" height="75" rx="12" fill="#000" opacity="0.5"/><rect x="1401" y="331" width="2" height="75" fill="#EAD79B" opacity="0.35"/><rect x="1433" y="303" width="24" height="103" rx="12" fill="#000" opacity="0.5"/><rect x="1433" y="303" width="2" height="103" fill="#EAD79B" opacity="0.35"/><rect x="1471" y="327" width="28" height="79" rx="14" fill="#000" opacity="0.5"/><rect x="1471" y="327" width="2" height="79" fill="#EAD79B" opacity="0.35"/><rect x="1510" y="336" width="29" height="70" rx="15" fill="#000" opacity="0.5"/><rect x="1510" y="336" width="2" height="70" fill="#EAD79B" opacity="0.35"/><rect width="1600" height="600" fill="url(#vigs303)"/><rect width="1600" height="600" filter="url(#grains303)" opacity="0.5"/></svg>