<svg viewBox="0 0 1600 600" xmlns="http://www.w3.org/2000/svg" preserveAspectRatio="xMidYMid slice"><defs>
    <linearGradient id="bgs606" x1="0" y1="0" x2="0" y2="1">
      <stop offset="0" stop-color="#0E2A22"/><stop offset="1" stop-color="#06140F"/>
    </linearGradient>
    <radialGradient id="glows606" cx="50%" cy="28%" r="60%">
      <stop offset="0" stop-color="#D9C089" stop-opacity="0.55"/>
      <stop offset="40%" stop-color="#D9C089" stop-opacity="0.12"/>
      <stop offset="100%" stop-color="#D9C089" stop-opacity="0"/>
    </radialGradient>
    <radialGradient id="vigs606" cx="50%" cy="46%" r="75%">
      <stop offset="55%" stop-color="#000" stop-opacity="0"/>
      <stop offset="100%" stop-color="#000" stop-opacity="0.55"/>
    </radialGradient>
    <filter id="grains606"><feTurbulence type="fractalNoise" baseFrequency="0.9" numOctaves="2" stitchTiles="stitch"/>
      <feColorMatrix type="saturate" values="0"/>
      <feComponentTransfer><feFuncA type="linear" slope="0.05"/></feComponentTransfer>
      <feComposite operator="over" in2="SourceGraphic"/></filter>
    <filter id="softs606"><feGaussianBlur stdDeviation="6"/></filter>
  </defs><rect width="1600" height="600" fill="url(#bgs606)"/><rect width="1600" height="600" fill="url(#glows606)"/><line x1="227" y1="0" x2="227" y2="58" stroke="#D9C089" stroke-opacity="0.25" stroke-width="1"/><circle cx="227" cy="72" r="38" fill="#D9C089" opacity="0.18" filter="url(#softs606)"/><circle cx="227" cy="72" r="5" fill="#D9C089" opacity="0.9"/><line x1="441" y1="0" x2="441" y2="59" stroke="#D9C089" stroke-opacity="0.25" stroke-width="1"/><circle cx="441" cy="73" r="38" fill="#D9C089" opacity="0.18" filter="url(#softs606)"/><circle cx="441" cy="73" r="5" fill="#D9C089" opacity="0.9"/><line x1="688" y1="0" x2="688" y2="86" stroke="#D9C089" stroke-opacity="0.25" stroke-width="1"/><circle cx="688" cy="100" r="39" fill="#D9C089" opacity="0.18" filter="url(#softs606)"/><circle cx="688" cy="100" r="5" fill="#D9C089" opacity="0.9"/><line x1="910" y1="0" x2="910" y2="82" stroke="#D9C089" stroke-opacity="0.25" stroke-width="1"/><circle cx="910" cy="96" r="38" fill="#D9C089" opacity="0.18" filter="url(#softs606)"/><circle cx="910" cy="96" r="5" fill="#D9C089" opacity="0.9"/><line x1="1147" y1="0" x2="1147" y2="79" stroke="#D9C089" stroke-opacity="0.25" stroke-width="1"/><circle cx="1147" cy="93" r="32" fill="#D9C089" opacity="0.18" filter="url(#softs606)"/><circle cx="1147" cy="93" r="5" fill="#D9C089" opacity="0.9"/><line x1="1390" y1="0" x2="1390" y2="71" stroke="#D9C089" stroke-opacity="0.25" stroke-width="1"/><circle cx="1390" cy="85" r="34" fill="#D9C089" opacity="0.18" filter="url(#softs606)"/><circle cx="1390" cy="85" r="5" fill="#D9C089" opacity="0.9"/><circle cx="522" cy="106" r="10" fill="#D9C089" opacity="0.10" filter="url(#softs606)"/><circle cx="898" cy="427" r="6" fill="#D9C089" opacity="0.04" filter="url(#softs606)"/><circle cx="281" cy="311" r="8" fill="#D9C089" opacity="0.06" filter="url(#softs606)"/><circle cx="690" cy="103" r="6" fill="#D9C089" opacity="0.13" filter="url(#softs606)"/><circle cx="1280" cy="479" r="18" fill="#D9C089" opacity="0.07" filter="url(#softs606)"/><circle cx="697" cy="260" r="6" fill="#D9C089" opacity="0.06" filter="url(#softs606)"/><circle cx="1126" cy="136" r="4" fill="#D9C089" opacity="0.10" filter="url(#softs606)"/><circle cx="1073" cy="115" r="21" fill="#D9C089" opacity="0.05" filter="url(#softs606)"/><circle cx="1095" cy="193" r="13" fill="#D9C089" opacity="0.05" filter="url(#softs606)"/><circle cx="705" cy="459" r="10" fill="#D9C089" opacity="0.10" filter="url(#softs606)"/><circle cx="283" cy="305" r="8" fill="#D9C089" opacity="0.08" filter="url(#softs606)"/><circle cx="1412" cy="374" r="7" fill="#D9C089" opacity="0.06" filter="url(#softs606)"/><circle cx="1060" cy="460" r="24" fill="#D9C089" opacity="0.10" filter="url(#softs606)"/><circle cx="1051" cy="94" r="21" fill="#D9C089" opacity="0.09" filter="url(#softs606)"/><circle cx="223" cy="556" r="23" fill="#D9C089" opacity="0.09" filter="url(#softs606)"/><circle cx="1121" cy="415" r="18" fill="#D9C089" opacity="0.08" filter="url(#softs606)"/><circle cx="1046" cy="364" r="8" fill="#D9C089" opacity="0.14" filter="url(#softs606)"/><circle cx="65" cy="100" r="21" fill="#D9C089" opacity="0.06" filter="url(#softs606)"/><circle cx="1439" cy="372" r="18" fill="#D9C089" opacity="0.11" filter="url(#softs606)"/><circle cx="1070" cy="391" r="5" fill="#D9C089" opacity="0.10" filter="url(#softs606)"/><circle cx="1397" cy="126" r="19" fill="#D9C089" opacity="0.06" filter="url(#softs606)"/><circle cx="776" cy="310" r="4" fill="#D9C089" opacity="0.09" filter="url(#softs606)"/><circle cx="954" cy="330" r="12" fill="#D9C089" opacity="0.09" filter="url(#softs606)"/><circle cx="475" cy="510" r="4" fill="#D9C089" opacity="0.13" filter="url(#softs606)"/><circle cx="1437" cy="535" r="19" fill="#D9C089" opacity="0.09" filter="url(#softs606)"/><circle cx="1417" cy="320" r="12" fill="#D9C089" opacity="0.09" filter="url(#softs606)"/><rect x="0" y="396" width="1600" height="204" fill="#000" opacity="0.32"/><rect x="64" y="346" width="18" height="60" rx="9" fill="#000" opacity="0.5"/><rect x="64" y="346" width="2" height="60" fill="#D9C089" opacity="0.35"/><rect x="98" y="334" width="16" height="72" rx="8" fill="#000" opacity="0.5"/><rect x="98" y="334" width="2" height="72" fill="#D9C089" opacity="0.35"/><rect x="134" y="299" width="24" height="107" rx="12" fill="#000" opacity="0.5"/><rect x="134" y="299" width="2" height="107" fill="#D9C089" opacity="0.35"/><rect x="176" y="342" width="26" height="64" rx="13" fill="#000" opacity="0.5"/><rect x="176" y="342" width="2" height="64" fill="#D9C089" opacity="0.35"/><rect x="220" y="294" width="17" height="112" rx="9" fill="#000" opacity="0.5"/><rect x="220" y="294" width="2" height="112" fill="#D9C089" opacity="0.35"/><rect x="252" y="267" width="24" height="139" rx="12" fill="#000" opacity="0.5"/><rect x="252" y="267" width="2" height="139" fill="#D9C089" opacity="0.35"/><rect x="288" y="327" width="27" height="79" rx="14" fill="#000" opacity="0.5"/><rect x="288" y="327" width="2" height="79" fill="#D9C089" opacity="0.35"/><rect x="335" y="271" width="20" height="135" rx="10" fill="#000" opacity="0.5"/><rect x="335" y="271" width="2" height="135" fill="#D9C089" opacity="0.35"/><rect x="366" y="341" width="28" height="65" rx="14" fill="#000" opacity="0.5"/><rect x="366" y="341" width="2" height="65" fill="#D9C089" opacity="0.35"/><rect x="408" y="299" width="15" height="107" rx="7" fill="#000" opacity="0.5"/><rect x="408" y="299" width="2" height="107" fill="#D9C089" opacity="0.35"/><rect x="435" y="312" width="19" height="94" rx="10" fill="#000" opacity="0.5"/><rect x="435" y="312" width="2" height="94" fill="#D9C089" opacity="0.35"/><rect x="468" y="276" width="18" height="130" rx="9" fill="#000" opacity="0.5"/><rect x="468" y="276" width="2" height="130" fill="#D9C089" opacity="0.35"/><rect x="501" y="316" width="16" height="90" rx="8" fill="#000" opacity="0.5"/><rect x="501" y="316" width="2" height="90" fill="#D9C089" opacity="0.35"/><rect x="530" y="320" width="28" height="86" rx="14" fill="#000" opacity="0.5"/><rect x="530" y="320" width="2" height="86" fill="#D9C089" opacity="0.35"/><rect x="580" y="303" width="21" height="103" rx="10" fill="#000" opacity="0.5"/><rect x="580" y="303" width="2" height="103" fill="#D9C089" opacity="0.35"/><rect x="609" y="290" width="21" height="116" rx="10" fill="#000" opacity="0.5"/><rect x="609" y="290" width="2" height="116" fill="#D9C089" opacity="0.35"/><rect x="651" y="311" width="15" height="95" rx="7" fill="#000" opacity="0.5"/><rect x="651" y="311" width="2" height="95" fill="#D9C089" opacity="0.35"/><rect x="677" y="337" width="27" height="69" rx="14" fill="#000" opacity="0.5"/><rect x="677" y="337" width="2" height="69" fill="#D9C089" opacity="0.35"/><rect x="721" y="301" width="17" height="105" rx="8" fill="#000" opacity="0.5"/><rect x="721" y="301" width="2" height="105" fill="#D9C089" opacity="0.35"/><rect x="757" y="312" width="25" height="94" rx="13" fill="#000" opacity="0.5"/><rect x="757" y="312" width="2" height="94" fill="#D9C089" opacity="0.35"/><rect x="788" y="337" width="22" height="69" rx="11" fill="#000" opacity="0.5"/><rect x="788" y="337" width="2" height="69" fill="#D9C089" opacity="0.35"/><rect x="827" y="265" width="16" height="141" rx="8" fill="#000" opacity="0.5"/><rect x="827" y="265" width="2" height="141" fill="#D9C089" opacity="0.35"/><rect x="856" y="265" width="17" height="141" rx="8" fill="#000" opacity="0.5"/><rect x="856" y="265" width="2" height="141" fill="#D9C089" opacity="0.35"/><rect x="879" y="296" width="20" height="110" rx="10" fill="#000" opacity="0.5"/><rect x="879" y="296" width="2" height="110" fill="#D9C089" opacity="0.35"/><rect x="918" y="319" width="20" height="87" rx="10" fill="#000" opacity="0.5"/><rect x="918" y="319" width="2" height="87" fill="#D9C089" opacity="0.35"/><rect x="955" y="299" width="22" height="107" rx="11" fill="#000" opacity="0.5"/><rect x="955" y="299" width="2" height="107" fill="#D9C089" opacity="0.35"/><rect x="989" y="313" width="21" height="93" rx="10" fill="#000" opacity="0.5"/><rect x="989" y="313" width="2" height="93" fill="#D9C089" opacity="0.35"/><rect x="1024" y="275" width="19" height="131" rx="9" fill="#000" opacity="0.5"/><rect x="1024" y="275" width="2" height="131" fill="#D9C089" opacity="0.35"/><rect x="1051" y="278" width="23" height="128" rx="11" fill="#000" opacity="0.5"/><rect x="1051" y="278" width="2" height="128" fill="#D9C089" opacity="0.35"/><rect x="1086" y="309" width="27" height="97" rx="14" fill="#000" opacity="0.5"/><rect x="1086" y="309" width="2" height="97" fill="#D9C089" opacity="0.35"/><rect x="1128" y="264" width="26" height="142" rx="13" fill="#000" opacity="0.5"/><rect x="1128" y="264" width="2" height="142" fill="#D9C089" opacity="0.35"/><rect x="1167" y="272" width="19" height="134" rx="10" fill="#000" opacity="0.5"/><rect x="1167" y="272" width="2" height="134" fill="#D9C089" opacity="0.35"/><rect x="1198" y="263" width="19" height="143" rx="10" fill="#000" opacity="0.5"/><rect x="1198" y="263" width="2" height="143" fill="#D9C089" opacity="0.35"/><rect x="1232" y="280" width="19" height="126" rx="10" fill="#000" opacity="0.5"/><rect x="1232" y="280" width="2" height="126" fill="#D9C089" opacity="0.35"/><rect x="1269" y="293" width="15" height="113" rx="7" fill="#000" opacity="0.5"/><rect x="1269" y="293" width="2" height="113" fill="#D9C089" opacity="0.35"/><rect x="1301" y="346" width="30" height="60" rx="15" fill="#000" opacity="0.5"/><rect x="1301" y="346" width="2" height="60" fill="#D9C089" opacity="0.35"/><rect x="1346" y="285" width="26" height="121" rx="13" fill="#000" opacity="0.5"/><rect x="1346" y="285" width="2" height="121" fill="#D9C089" opacity="0.35"/><rect x="1389" y="288" width="24" height="118" rx="12" fill="#000" opacity="0.5"/><rect x="1389" y="288" width="2" height="118" fill="#D9C089" opacity="0.35"/><rect x="1437" y="290" width="18" height="116" rx="9" fill="#000" opacity="0.5"/><rect x="1437" y="290" width="2" height="116" fill="#D9C089" opacity="0.35"/><rect x="1462" y="283" width="24" height="123" rx="12" fill="#000" opacity="0.5"/><rect x="1462" y="283" width="2" height="123" fill="#D9C089" opacity="0.35"/><rect x="1493" y="334" width="25" height="72" rx="13" fill="#000" opacity="0.5"/><rect x="1493" y="334" width="2" height="72" fill="#D9C089" opacity="0.35"/><rect x="1529" y="275" width="20" height="131" rx="10" fill="#000" opacity="0.5"/><rect x="1529" y="275" width="2" height="131" fill="#D9C089" opacity="0.35"/><rect width="1600" height="600" fill="url(#vigs606)"/><rect width="1600" height="600" filter="url(#grains606)" opacity="0.5"/></svg>